<svg xmlns="http://www.w3.org/2000/svg" xmlns:xlink="http://www.w3.org/1999/xlink" width="350" zoomAndPan="magnify" viewBox="0 0 262.5 112.499997" height="150" preserveAspectRatio="xMidYMid meet" version="1.0"><defs><g/><clipPath id="d76949145b"><path d="M 7.785156 10.253906 L 87.679688 10.253906 L 87.679688 102 L 7.785156 102 Z M 7.785156 10.253906 " clip-rule="nonzero"/></clipPath></defs><g fill="#ffffff" fill-opacity="1"><g transform="translate(94.568183, 81.388269)"><g><path d="M 55.6875 -48.78125 L 34.5625 0 L 26.140625 0 L 4.734375 -48.78125 L 13.234375 -48.78125 L 25.78125 -19.515625 C 26.53125 -17.742188 27.34375 -15.859375 28.21875 -13.859375 C 29.101562 -11.867188 29.914062 -9.921875 30.65625 -8.015625 C 31.351562 -9.921875 32.117188 -11.859375 32.953125 -13.828125 C 33.796875 -15.804688 34.566406 -17.675781 35.265625 -19.4375 L 46.90625 -48.78125 Z M 55.6875 -48.78125 "/></g></g></g><g fill="#ffffff" fill-opacity="1"><g transform="translate(143.278386, 81.388269)"><g><path d="M 56.859375 3.765625 L 50.875 7.671875 L 44.390625 -0.84375 C 41.234375 0.1875 37.890625 0.703125 34.359375 0.703125 C 30.359375 0.703125 26.675781 0.0625 23.3125 -1.21875 C 19.945312 -2.5 17.039062 -4.273438 14.59375 -6.546875 C 12.15625 -8.828125 10.265625 -11.488281 8.921875 -14.53125 C 7.578125 -17.570312 6.90625 -20.859375 6.90625 -24.390625 C 6.90625 -27.921875 7.578125 -31.207031 8.921875 -34.25 C 10.265625 -37.289062 12.15625 -39.945312 14.59375 -42.21875 C 17.039062 -44.5 19.945312 -46.28125 23.3125 -47.5625 C 26.675781 -48.84375 30.359375 -49.484375 34.359375 -49.484375 C 38.398438 -49.484375 42.09375 -48.84375 45.4375 -47.5625 C 48.78125 -46.28125 51.679688 -44.5 54.140625 -42.21875 C 56.609375 -39.945312 58.515625 -37.289062 59.859375 -34.25 C 61.203125 -31.207031 61.875 -27.921875 61.875 -24.390625 C 61.875 -20.117188 60.898438 -16.21875 58.953125 -12.6875 C 57.003906 -9.15625 54.332031 -6.273438 50.9375 -4.046875 Z M 54.21875 -24.390625 C 54.21875 -27.785156 53.367188 -30.816406 51.671875 -33.484375 C 49.972656 -36.148438 47.625 -38.257812 44.625 -39.8125 C 41.632812 -41.375 38.210938 -42.15625 34.359375 -42.15625 C 30.453125 -42.15625 27.007812 -41.375 24.03125 -39.8125 C 21.0625 -38.257812 18.738281 -36.148438 17.0625 -33.484375 C 15.394531 -30.816406 14.5625 -27.785156 14.5625 -24.390625 C 14.5625 -20.992188 15.394531 -17.960938 17.0625 -15.296875 C 18.738281 -12.628906 21.0625 -10.515625 24.03125 -8.953125 C 27.007812 -7.398438 30.453125 -6.625 34.359375 -6.625 C 36.171875 -6.625 37.910156 -6.804688 39.578125 -7.171875 L 32.40625 -16.515625 C 32.40625 -16.515625 32.71875 -16.695312 33.34375 -17.0625 C 33.96875 -17.4375 34.6875 -17.867188 35.5 -18.359375 C 36.3125 -18.847656 37.03125 -19.273438 37.65625 -19.640625 C 38.289062 -20.015625 38.609375 -20.203125 38.609375 -20.203125 L 46.40625 -9.96875 C 48.820312 -11.539062 50.726562 -13.582031 52.125 -16.09375 C 53.519531 -18.601562 54.21875 -21.367188 54.21875 -24.390625 Z M 54.21875 -24.390625 "/></g></g></g><g fill="#ffffff" fill-opacity="1"><g transform="translate(200.350963, 81.388269)"><g><path d="M 49.34375 -48.78125 L 49.34375 -43.34375 L 17.5625 -7.3125 L 50.109375 -7.3125 L 50.109375 0 L 6 0 L 6 -5.5 L 37.84375 -41.46875 L 7.8125 -41.46875 L 7.8125 -48.78125 Z M 49.34375 -48.78125 "/></g></g></g><g clip-path="url(#d76949145b)"><path fill="#ffffff" d="M 52.53125 11.941406 C 53.054688 12.097656 53.480469 12.164062 53.804688 12.136719 C 54.117188 12.113281 54.335938 12 54.457031 11.796875 L 54.457031 11.792969 L 54.460938 11.789062 L 54.480469 11.765625 C 54.5625 11.667969 54.660156 11.585938 54.773438 11.515625 C 54.886719 11.445312 55.011719 11.394531 55.15625 11.351562 C 55.867188 11.15625 56.96875 11.320312 58.457031 11.84375 L 58.496094 11.859375 L 58.492188 11.902344 C 58.484375 11.996094 58.476562 12.09375 58.464844 12.191406 C 58.347656 13.222656 58.054688 13.984375 57.582031 14.472656 C 57.339844 14.722656 57.050781 14.902344 56.714844 15.007812 C 56.390625 15.148438 56.3125 15.40625 56.476562 15.773438 C 56.65625 16.167969 57.105469 16.6875 57.824219 17.332031 C 58.96875 18.265625 59.664062 19.109375 59.914062 19.867188 C 60.164062 20.625 59.964844 21.292969 59.320312 21.867188 C 59.386719 22.175781 59.390625 22.496094 59.335938 22.832031 C 59.367188 22.988281 59.382812 23.148438 59.386719 23.3125 C 59.394531 23.476562 59.386719 23.644531 59.363281 23.8125 C 59.28125 24.433594 59.023438 25.089844 58.585938 25.78125 C 58.683594 26.277344 58.695312 26.765625 58.617188 27.246094 C 58.539062 27.734375 58.367188 28.214844 58.101562 28.683594 C 57.824219 29.308594 57.75 29.882812 57.878906 30.410156 C 58.007812 30.9375 58.34375 31.421875 58.882812 31.859375 L 58.980469 31.9375 L 58.855469 31.957031 C 58.320312 32.035156 57.847656 32.058594 57.4375 32.019531 C 57.582031 32.535156 57.601562 33.050781 57.503906 33.566406 C 57.402344 34.109375 57.167969 34.648438 56.800781 35.1875 L 56.796875 35.191406 C 56.707031 35.332031 56.636719 35.472656 56.582031 35.609375 C 56.523438 35.75 56.484375 35.886719 56.464844 36.023438 C 56.347656 36.730469 56.675781 37.425781 57.445312 38.109375 L 57.554688 38.207031 L 57.410156 38.207031 C 57.015625 38.203125 56.652344 38.160156 56.316406 38.078125 C 56.449219 38.480469 56.4375 38.964844 56.277344 39.527344 C 56.109375 40.125 55.773438 40.816406 55.269531 41.597656 C 55.175781 42.503906 55.277344 43.3125 55.574219 44.027344 C 55.871094 44.742188 56.363281 45.367188 57.050781 45.898438 L 57.199219 46.011719 L 57.015625 45.996094 C 56.214844 45.925781 55.527344 45.777344 54.941406 45.546875 C 55.324219 48.023438 56.277344 49.996094 57.792969 51.464844 C 58.09375 51.753906 58.414062 52.023438 58.757812 52.273438 C 59.101562 52.523438 59.46875 52.753906 59.855469 52.964844 L 59.859375 52.964844 L 59.863281 52.96875 C 61.738281 54.101562 62.996094 55.097656 63.632812 55.957031 C 63.761719 56.125 63.863281 56.289062 63.941406 56.445312 C 64.019531 56.601562 64.070312 56.757812 64.101562 56.90625 C 64.535156 57.675781 65.007812 58.328125 65.527344 58.863281 C 66.042969 59.398438 66.605469 59.8125 67.214844 60.109375 C 73.25 62.425781 80.449219 53.636719 77.964844 47.726562 C 76.761719 45.496094 72.441406 45.238281 71.058594 48.699219 C 70.945312 48.988281 70.847656 49.300781 70.765625 49.636719 C 70.6875 49.972656 70.628906 50.335938 70.585938 50.722656 L 70.582031 50.734375 L 70.566406 50.910156 L 70.480469 50.753906 C 69.558594 49.039062 69.59375 47.410156 70.589844 45.859375 C 70.78125 45.558594 71.007812 45.261719 71.273438 44.96875 C 71.519531 44.695312 71.796875 44.425781 72.105469 44.15625 C 71.703125 44.015625 71.324219 43.925781 70.972656 43.890625 C 70.261719 43.820312 69.652344 43.96875 69.148438 44.339844 C 68.640625 44.710938 68.234375 45.308594 67.929688 46.128906 C 67.660156 46.859375 67.46875 47.769531 67.359375 48.859375 L 67.347656 49 L 67.261719 48.886719 C 67.003906 48.527344 66.789062 48.175781 66.628906 47.824219 C 66.167969 46.84375 66.085938 45.902344 66.394531 45.003906 C 66.703125 44.113281 67.394531 43.269531 68.476562 42.484375 C 69.078125 42.046875 69.796875 41.628906 70.640625 41.230469 C 70.476562 40.992188 70.300781 40.789062 70.117188 40.621094 C 69.625 40.171875 69.0625 39.96875 68.425781 40.003906 C 67.789062 40.042969 67.074219 40.328125 66.289062 40.863281 C 65.507812 41.386719 64.660156 42.15625 63.738281 43.164062 L 63.582031 43.335938 L 63.644531 43.113281 C 64.351562 40.617188 65.914062 38.9375 68.328125 38.078125 C 68.796875 37.910156 69.296875 37.773438 69.832031 37.667969 C 70.363281 37.5625 70.925781 37.488281 71.523438 37.445312 L 71.53125 37.445312 C 73.964844 36.96875 76.242188 37.914062 78.367188 40.277344 C 78.683594 40.632812 78.996094 41.015625 79.308594 41.429688 C 80.023438 39.109375 79.742188 36.441406 78.714844 34.253906 C 78.515625 33.820312 78.285156 33.410156 78.027344 33.023438 C 77.785156 32.65625 77.519531 32.316406 77.234375 32.003906 C 77.226562 32.019531 77.214844 32.035156 77.203125 32.050781 C 77.160156 32.109375 77.097656 32.144531 77.023438 32.160156 C 76.949219 32.171875 76.867188 32.164062 76.765625 32.140625 C 76.46875 32.0625 76.023438 31.800781 75.4375 31.351562 C 74.390625 30.785156 73.414062 30.640625 72.503906 30.921875 C 71.589844 31.203125 70.738281 31.910156 69.953125 33.046875 L 69.867188 33.175781 L 69.851562 33.019531 C 69.757812 31.824219 70.242188 30.820312 71.304688 30 C 71.511719 29.84375 71.742188 29.691406 71.988281 29.546875 C 72.191406 29.429688 72.414062 29.316406 72.644531 29.207031 C 72.171875 29.136719 71.625 29.03125 71.007812 28.894531 C 70.953125 28.886719 70.890625 28.882812 70.832031 28.878906 C 69.472656 28.761719 68.40625 29.097656 67.632812 29.882812 C 66.859375 30.671875 66.375 31.914062 66.1875 33.613281 C 66.171875 33.726562 66.160156 33.847656 66.152344 33.976562 L 66.136719 34.15625 L 66.050781 33.996094 C 65.453125 32.902344 65.191406 31.695312 65.257812 30.382812 C 65.269531 30.125 65.296875 29.867188 65.332031 29.601562 C 65.371094 29.339844 65.421875 29.070312 65.484375 28.796875 L 65.488281 28.789062 L 65.488281 28.78125 C 65.929688 27.667969 66.613281 26.8125 67.535156 26.210938 C 68.429688 25.628906 69.550781 25.289062 70.894531 25.191406 C 69.917969 24.183594 69.246094 23.089844 68.871094 21.910156 C 68.792969 21.675781 68.730469 21.433594 68.679688 21.191406 C 68.628906 20.949219 68.589844 20.703125 68.5625 20.453125 L 68.5625 20.445312 C 68.339844 18.613281 68.621094 16.996094 69.402344 15.589844 C 69.554688 15.3125 69.726562 15.046875 69.914062 14.789062 C 70.105469 14.53125 70.3125 14.285156 70.542969 14.042969 L 70.542969 14.039062 C 71.527344 12.804688 72.894531 12.40625 74.640625 12.847656 C 74.980469 12.933594 75.332031 13.050781 75.699219 13.199219 C 76.066406 13.34375 76.449219 13.527344 76.84375 13.738281 L 76.867188 13.746094 C 78.089844 14.152344 79.152344 14.191406 80.050781 13.867188 C 80.949219 13.546875 81.6875 12.863281 82.265625 11.8125 L 82.269531 11.808594 L 82.269531 11.804688 L 82.273438 11.804688 L 82.273438 11.800781 L 82.277344 11.800781 L 82.277344 11.796875 L 82.28125 11.796875 L 82.28125 11.792969 L 82.285156 11.792969 L 82.289062 11.789062 L 82.296875 11.789062 L 82.296875 11.785156 L 82.332031 11.785156 C 82.335938 11.789062 82.335938 11.789062 82.339844 11.789062 C 82.34375 11.792969 82.347656 11.792969 82.347656 11.796875 L 82.363281 11.8125 L 82.363281 11.816406 L 82.371094 11.832031 C 82.425781 12.441406 82.367188 13.011719 82.195312 13.539062 C 82.019531 14.070312 81.730469 14.558594 81.324219 15.003906 L 81.320312 15.007812 C 80.761719 15.558594 80 15.894531 79.035156 16.011719 C 78.847656 16.03125 78.652344 16.046875 78.449219 16.054688 C 78.351562 16.054688 78.25 16.058594 78.152344 16.054688 C 79.378906 16.535156 80.300781 17.34375 80.890625 18.445312 C 81.03125 18.703125 81.152344 18.976562 81.253906 19.265625 C 81.355469 19.554688 81.441406 19.859375 81.507812 20.179688 C 81.976562 21.425781 82.71875 22.136719 83.734375 22.308594 C 84.757812 22.484375 86.066406 22.121094 87.652344 21.214844 L 87.941406 21.050781 L 87.722656 21.300781 C 86.058594 23.164062 84.367188 23.925781 82.648438 23.582031 C 82.316406 23.515625 81.980469 23.410156 81.644531 23.257812 C 81.308594 23.109375 80.972656 22.917969 80.636719 22.6875 C 79.726562 22.210938 79.105469 21.574219 78.78125 20.777344 C 78.359375 21.761719 77.886719 22.441406 77.359375 22.820312 C 76.792969 23.226562 76.167969 23.289062 75.484375 23 L 75.375 22.953125 L 75.480469 22.898438 C 76.402344 22.4375 76.878906 21.664062 76.917969 20.574219 C 76.925781 20.359375 76.914062 20.136719 76.890625 19.898438 C 76.863281 19.660156 76.820312 19.410156 76.757812 19.144531 L 76.757812 19.140625 C 76.472656 17.574219 75.757812 16.648438 74.617188 16.359375 C 74.394531 16.304688 74.15625 16.273438 73.902344 16.265625 C 73.644531 16.257812 73.371094 16.273438 73.082031 16.3125 L 73.078125 16.3125 C 72.566406 16.488281 72.167969 16.808594 71.878906 17.238281 C 71.550781 17.734375 71.371094 18.382812 71.351562 19.136719 C 71.335938 19.890625 71.476562 20.75 71.785156 21.660156 C 72.628906 24.148438 74.710938 27.03125 78.136719 29.3125 C 80.601562 31.121094 81.851562 33.90625 81.882812 37.667969 C 81.890625 38.398438 81.851562 39.167969 81.765625 39.96875 C 81.691406 40.675781 81.578125 41.410156 81.433594 42.171875 C 82.113281 41.035156 82.890625 40.277344 83.757812 39.898438 C 84.71875 39.476562 85.789062 39.519531 86.972656 40.015625 C 87.1875 40.109375 87.410156 40.214844 87.632812 40.339844 L 87.796875 40.425781 L 87.613281 40.441406 C 86.125 40.554688 85.03125 40.863281 84.339844 41.371094 C 84.203125 41.46875 84.085938 41.574219 83.980469 41.6875 C 83.875 41.796875 83.789062 41.917969 83.710938 42.042969 L 83.710938 42.046875 L 83.703125 42.058594 L 83.695312 42.066406 C 83.023438 42.570312 82.535156 43.472656 82.226562 44.777344 C 81.914062 46.085938 81.785156 47.796875 81.839844 49.910156 L 81.839844 49.914062 C 81.441406 55.136719 79.414062 58.910156 75.765625 61.234375 C 75.058594 61.6875 74.285156 62.082031 73.453125 62.425781 C 72.621094 62.765625 71.726562 63.054688 70.773438 63.285156 L 70.761719 63.289062 C 68.667969 63.71875 66.820312 63.417969 65.21875 62.386719 C 64.96875 62.230469 64.726562 62.050781 64.488281 61.855469 C 64.332031 62.425781 64.210938 62.964844 64.125 63.476562 C 64.03125 64.027344 63.980469 64.542969 63.96875 65.023438 C 63.898438 67.480469 64.875 69.070312 66.886719 69.785156 C 67.445312 69.828125 67.90625 69.8125 68.261719 69.730469 C 69.085938 69.550781 69.355469 69.019531 69.066406 68.148438 L 69.054688 68.109375 L 69.085938 68.085938 C 70.3125 67.246094 71.3125 66.871094 72.085938 66.964844 C 72.855469 67.054688 73.402344 67.605469 73.71875 68.609375 C 73.835938 68.574219 73.945312 68.535156 74.046875 68.492188 C 74.707031 68.207031 75.097656 67.683594 75.214844 66.933594 L 75.296875 66.429688 L 75.324219 66.9375 C 75.367188 67.699219 75.183594 68.351562 74.773438 68.894531 C 74.386719 69.410156 73.796875 69.824219 73.007812 70.144531 C 73.132812 70.199219 73.253906 70.269531 73.371094 70.359375 C 73.503906 70.457031 73.632812 70.578125 73.753906 70.71875 C 73.769531 70.738281 73.785156 70.757812 73.800781 70.773438 C 74.101562 70.84375 74.46875 70.789062 74.902344 70.617188 C 75.351562 70.441406 75.871094 70.136719 76.464844 69.707031 L 76.464844 69.703125 L 76.46875 69.703125 C 76.472656 69.699219 76.480469 69.695312 76.488281 69.695312 C 76.503906 69.691406 76.519531 69.691406 76.53125 69.703125 L 76.535156 69.707031 L 76.539062 69.707031 L 76.539062 69.710938 L 76.542969 69.710938 L 76.542969 69.714844 L 76.546875 69.71875 L 76.550781 69.726562 L 76.550781 69.730469 L 76.554688 69.738281 L 76.554688 69.757812 L 76.550781 69.757812 L 76.550781 69.769531 C 76.074219 70.867188 75.488281 71.683594 74.804688 72.210938 C 74.199219 72.675781 73.515625 72.921875 72.753906 72.949219 C 73 73.070312 73.226562 73.261719 73.429688 73.527344 C 73.480469 73.59375 73.535156 73.671875 73.582031 73.75 C 74.082031 74.242188 74.8125 74.277344 75.78125 73.851562 C 75.972656 73.765625 76.171875 73.664062 76.382812 73.542969 C 76.589844 73.421875 76.8125 73.285156 77.039062 73.128906 L 77.046875 73.125 L 77.171875 73.035156 L 77.128906 73.183594 C 76.679688 74.691406 75.773438 75.5625 74.40625 75.804688 C 74.144531 75.851562 73.863281 75.871094 73.5625 75.871094 C 73.296875 75.871094 73.019531 75.851562 72.726562 75.8125 C 73.160156 76.515625 73.636719 76.914062 74.164062 77 C 74.714844 77.089844 75.324219 76.84375 75.992188 76.261719 L 76.085938 76.179688 L 76.082031 76.304688 C 76.074219 76.589844 76.039062 76.851562 75.984375 77.082031 C 75.859375 77.609375 75.617188 78.003906 75.257812 78.257812 C 74.898438 78.515625 74.421875 78.632812 73.832031 78.613281 C 73.613281 78.605469 73.375 78.578125 73.121094 78.53125 C 73.878906 78.953125 74.445312 79.320312 74.828125 79.636719 C 75.265625 80 75.460938 80.304688 75.410156 80.542969 C 75.542969 81.308594 75.472656 81.859375 75.191406 82.199219 C 75.503906 82.960938 75.226562 83.960938 74.359375 85.199219 C 74.191406 85.441406 74 85.691406 73.785156 85.953125 C 73.570312 86.210938 73.335938 86.480469 73.074219 86.761719 C 72.515625 87.523438 72.40625 88.21875 72.753906 88.847656 C 72.820312 88.96875 72.90625 89.089844 73.007812 89.210938 C 73.109375 89.328125 73.226562 89.445312 73.363281 89.558594 C 73.480469 89.570312 73.585938 89.582031 73.679688 89.597656 C 73.996094 89.648438 74.195312 89.730469 74.273438 89.839844 C 74.96875 90.488281 75.394531 91.121094 75.554688 91.738281 C 75.71875 92.355469 75.609375 92.957031 75.238281 93.546875 C 75.304688 94.101562 75.148438 94.675781 74.777344 95.257812 C 74.652344 95.453125 74.503906 95.648438 74.335938 95.84375 C 74.164062 96.039062 73.96875 96.238281 73.746094 96.4375 L 73.742188 96.441406 L 73.65625 96.519531 L 73.652344 96.402344 C 73.632812 95.675781 73.574219 95.054688 73.472656 94.535156 C 72.472656 94.324219 71.800781 93.957031 71.453125 93.429688 C 71.378906 93.316406 71.320312 93.199219 71.273438 93.074219 C 71.023438 93.703125 70.804688 94.386719 70.621094 95.113281 C 70.429688 95.871094 70.277344 96.679688 70.160156 97.539062 C 70.164062 97.582031 70.167969 97.621094 70.171875 97.664062 C 70.203125 98.027344 70.148438 98.339844 70.011719 98.589844 C 69.871094 98.84375 69.644531 99.042969 69.332031 99.179688 C 69.082031 99.289062 68.773438 99.359375 68.410156 99.394531 C 68.273438 99.621094 68.152344 99.855469 68.0625 100.089844 C 67.871094 100.566406 67.78125 101.058594 67.785156 101.566406 L 67.785156 101.722656 L 67.6875 101.601562 C 67.609375 101.507812 67.535156 101.417969 67.464844 101.324219 C 66.949219 100.648438 66.65625 100.046875 66.589844 99.519531 C 65.96875 99.355469 65.957031 98.726562 66.542969 97.628906 C 66.371094 97.273438 66.460938 96.695312 66.8125 95.898438 C 66.59375 96.074219 66.363281 96.3125 66.128906 96.609375 C 66.070312 96.683594 66.011719 96.757812 65.953125 96.835938 C 65.898438 96.914062 65.839844 96.996094 65.777344 97.082031 C 65.648438 97.554688 65.445312 97.878906 65.167969 98.050781 C 64.71875 98.339844 64.089844 98.226562 63.277344 97.714844 C 62.617188 97.570312 62.105469 97.679688 61.746094 98.042969 C 61.382812 98.414062 61.171875 99.050781 61.109375 99.945312 L 61.101562 100.078125 L 61.011719 99.980469 C 60.191406 99.042969 60.003906 98.136719 60.449219 97.261719 C 60.535156 97.089844 60.648438 96.921875 60.78125 96.753906 C 60.914062 96.589844 61.070312 96.421875 61.253906 96.261719 C 61.320312 95.777344 61.546875 95.398438 61.925781 95.117188 C 62.308594 94.839844 62.84375 94.664062 63.539062 94.585938 C 64.019531 94.433594 64.597656 93.90625 65.269531 93.015625 C 65.109375 93.132812 64.957031 93.199219 64.8125 93.210938 C 64.65625 93.226562 64.511719 93.179688 64.375 93.074219 C 64.339844 93.050781 64.304688 93.015625 64.269531 92.980469 C 64.238281 93.160156 64.140625 93.335938 63.980469 93.511719 L 63.976562 93.515625 C 63.859375 93.644531 63.742188 93.753906 63.621094 93.835938 C 63.363281 94.015625 63.089844 94.085938 62.8125 94.046875 C 62.535156 94.007812 62.253906 93.859375 61.960938 93.601562 C 61.738281 93.402344 61.507812 93.132812 61.273438 92.800781 C 60.964844 92.976562 60.636719 93.277344 60.292969 93.703125 C 60.175781 93.847656 60.054688 94.011719 59.929688 94.191406 C 59.804688 94.371094 59.679688 94.566406 59.550781 94.773438 L 59.527344 94.8125 L 59.449219 94.941406 L 59.425781 94.792969 C 59.25 93.609375 59.429688 92.636719 59.964844 91.886719 C 60.070312 91.742188 60.1875 91.605469 60.320312 91.472656 C 60.445312 91.347656 60.585938 91.230469 60.742188 91.121094 C 60.972656 90.320312 61.351562 89.816406 61.882812 89.601562 C 62.414062 89.382812 63.089844 89.464844 63.910156 89.84375 L 63.921875 89.851562 L 63.929688 89.859375 C 64.300781 90.316406 64.695312 90.585938 65.109375 90.664062 C 65.523438 90.742188 65.960938 90.632812 66.421875 90.335938 C 67.15625 89.585938 67.695312 88.691406 68.03125 87.644531 C 68.097656 87.441406 68.15625 87.234375 68.207031 87.015625 C 68.261719 86.800781 68.304688 86.578125 68.339844 86.355469 L 68.339844 86.34375 L 68.34375 86.34375 C 68.832031 84.496094 68.585938 82.957031 67.597656 81.726562 C 67.40625 81.484375 67.183594 81.257812 66.9375 81.039062 C 66.695312 80.828125 66.429688 80.628906 66.136719 80.441406 C 65.625 80.804688 64.972656 81 64.179688 81.027344 C 64.164062 81.644531 64.085938 82.167969 63.945312 82.59375 C 63.886719 82.769531 63.816406 82.933594 63.734375 83.078125 C 63.652344 83.222656 63.558594 83.351562 63.457031 83.460938 L 63.445312 83.472656 L 63.441406 83.472656 C 63.441406 83.472656 63.4375 83.476562 63.433594 83.476562 C 63.425781 83.480469 63.421875 83.480469 63.414062 83.480469 L 63.410156 83.480469 C 63.40625 83.480469 63.402344 83.480469 63.398438 83.480469 C 63.390625 83.476562 63.386719 83.476562 63.382812 83.472656 L 63.378906 83.46875 L 63.375 83.46875 L 63.371094 83.464844 L 63.371094 83.460938 L 63.367188 83.457031 C 63.367188 83.457031 63.363281 83.453125 63.363281 83.449219 C 63.359375 83.441406 63.359375 83.433594 63.355469 83.429688 L 63.355469 83.425781 C 63.378906 82.984375 63.296875 82.609375 63.105469 82.292969 C 63.015625 82.152344 62.910156 82.023438 62.78125 81.90625 C 62.542969 83.496094 61.964844 84.539062 61.035156 85.039062 C 60.851562 85.136719 60.652344 85.214844 60.441406 85.273438 C 60.230469 85.328125 60.003906 85.363281 59.765625 85.375 L 59.746094 85.375 L 59.644531 85.378906 L 59.695312 85.292969 C 60.4375 84.058594 60.652344 82.914062 60.332031 81.855469 C 60.148438 82.90625 59.675781 83.582031 58.910156 83.882812 C 58.753906 83.945312 58.582031 83.992188 58.402344 84.023438 C 58.21875 84.050781 58.023438 84.066406 57.820312 84.0625 L 57.660156 84.0625 L 57.738281 83.972656 C 58.59375 83.015625 58.660156 81.945312 57.9375 80.765625 C 57.792969 80.535156 57.621094 80.296875 57.417969 80.054688 C 57.214844 79.816406 56.980469 79.570312 56.714844 79.320312 C 56.480469 79.1875 56.261719 79.054688 56.070312 78.914062 C 55.4375 78.453125 55.050781 77.945312 54.910156 77.382812 C 54.769531 76.824219 54.878906 76.21875 55.238281 75.566406 C 55.320312 75.410156 55.421875 75.253906 55.535156 75.09375 C 54.75 74.921875 54.207031 74.609375 53.894531 74.148438 C 53.574219 73.675781 53.511719 73.050781 53.703125 72.28125 L 53.703125 72.273438 L 53.707031 72.265625 C 54.164062 71.453125 54.503906 70.640625 54.730469 69.824219 C 54.441406 70.210938 54.117188 70.503906 53.746094 70.710938 C 53.660156 70.757812 53.570312 70.804688 53.480469 70.84375 C 53.386719 70.882812 53.292969 70.914062 53.199219 70.941406 L 53.195312 70.941406 L 53.1875 70.945312 C 50.734375 71.320312 48.921875 71.945312 47.757812 72.828125 C 46.605469 73.703125 46.085938 74.824219 46.203125 76.203125 C 46.664062 78.367188 46.582031 79.863281 45.964844 80.691406 C 45.84375 80.855469 45.699219 80.992188 45.535156 81.101562 C 45.371094 81.214844 45.1875 81.300781 44.984375 81.359375 C 44.359375 81.65625 43.902344 82.0625 43.621094 82.574219 C 43.566406 82.671875 43.515625 82.777344 43.476562 82.882812 C 43.433594 82.992188 43.398438 83.101562 43.367188 83.21875 L 43.367188 83.230469 C 43.117188 83.839844 43.152344 84.273438 43.476562 84.53125 C 43.808594 84.796875 44.441406 84.886719 45.371094 84.804688 L 45.507812 84.792969 L 45.417969 84.894531 C 44.769531 85.628906 44.074219 86.015625 43.332031 86.0625 C 43.1875 86.070312 43.042969 86.066406 42.894531 86.046875 C 42.75 86.03125 42.601562 86 42.449219 85.957031 C 42.023438 85.894531 41.769531 85.46875 41.691406 84.6875 C 41.675781 84.539062 41.664062 84.375 41.664062 84.199219 C 41.660156 84.027344 41.664062 83.839844 41.675781 83.640625 C 41.578125 83.535156 41.488281 83.46875 41.40625 83.433594 C 41.351562 83.414062 41.304688 83.40625 41.253906 83.417969 C 41.207031 83.425781 41.160156 83.449219 41.117188 83.488281 C 41.03125 83.566406 40.953125 83.695312 40.878906 83.878906 C 41.199219 85.507812 41.027344 86.757812 40.363281 87.625 C 40.234375 87.796875 40.085938 87.949219 39.917969 88.089844 C 39.75 88.230469 39.566406 88.355469 39.359375 88.46875 L 39.257812 88.519531 L 39.277344 88.410156 C 39.386719 87.796875 39.390625 87.132812 39.292969 86.414062 C 39.273438 86.273438 39.25 86.132812 39.222656 85.984375 C 39.195312 85.84375 39.164062 85.695312 39.128906 85.546875 L 39.125 85.527344 L 39.125 85.519531 C 39.113281 85.375 39.089844 85.273438 39.050781 85.210938 C 39.03125 85.175781 39.007812 85.15625 38.980469 85.152344 C 38.949219 85.144531 38.910156 85.160156 38.863281 85.1875 C 38.757812 85.253906 38.628906 85.394531 38.472656 85.609375 C 38.621094 88.214844 37.996094 89.617188 36.589844 89.8125 L 36.496094 89.824219 L 36.53125 89.738281 C 36.769531 89.105469 36.820312 88.507812 36.679688 87.953125 C 36.652344 87.84375 36.617188 87.738281 36.578125 87.632812 C 36.535156 87.523438 36.484375 87.421875 36.429688 87.316406 L 36.421875 87.304688 C 36.179688 87.035156 35.949219 86.890625 35.734375 86.871094 C 35.523438 86.851562 35.320312 86.957031 35.125 87.1875 L 35.121094 87.195312 L 35.113281 87.199219 C 34.652344 87.484375 34.28125 87.933594 33.996094 88.546875 C 33.710938 89.160156 33.511719 89.9375 33.402344 90.878906 C 33.535156 91.402344 33.464844 91.898438 33.195312 92.367188 C 33.113281 92.511719 33.007812 92.65625 32.882812 92.796875 C 32.757812 92.9375 32.617188 93.070312 32.457031 93.203125 C 32.375 93.640625 32.207031 94.019531 31.953125 94.332031 C 31.570312 94.800781 31 95.128906 30.234375 95.3125 L 30.105469 95.34375 L 30.175781 95.230469 C 30.394531 94.871094 30.527344 94.378906 30.574219 93.75 C 30.34375 93.667969 30.144531 93.570312 29.976562 93.464844 C 29.632812 93.242188 29.410156 92.972656 29.3125 92.652344 C 29.214844 92.332031 29.238281 91.964844 29.386719 91.546875 C 29.480469 91.28125 29.628906 90.992188 29.824219 90.679688 L 29.839844 90.664062 C 30.109375 90.46875 30.195312 90.132812 30.097656 89.660156 C 30.078125 89.5625 30.050781 89.460938 30.015625 89.351562 C 29.992188 89.28125 29.964844 89.203125 29.933594 89.125 C 29.894531 89.289062 29.832031 89.4375 29.742188 89.574219 C 29.539062 89.886719 29.203125 90.136719 28.734375 90.320312 C 28.28125 90.625 27.847656 91.183594 27.433594 92.003906 C 27.351562 92.164062 27.273438 92.335938 27.191406 92.515625 C 27.144531 92.625 27.097656 92.738281 27.050781 92.851562 C 27.109375 93.027344 27.140625 93.191406 27.140625 93.335938 C 27.144531 93.492188 27.113281 93.628906 27.046875 93.75 C 26.980469 93.871094 26.882812 93.96875 26.753906 94.050781 C 26.503906 94.207031 26.125 94.285156 25.625 94.292969 C 25.476562 94.3125 25.34375 94.34375 25.222656 94.382812 C 24.878906 94.492188 24.640625 94.6875 24.5 94.964844 C 24.355469 95.246094 24.3125 95.609375 24.371094 96.0625 C 24.410156 96.339844 24.484375 96.648438 24.59375 96.992188 L 24.617188 97.0625 L 24.546875 97.0625 C 24.492188 97.066406 24.441406 97.0625 24.390625 97.0625 C 23.953125 97.03125 23.617188 96.804688 23.386719 96.375 C 23.160156 95.960938 23.03125 95.351562 23.003906 94.558594 C 22.988281 94.171875 23 93.742188 23.03125 93.265625 C 23.042969 92.191406 23.558594 91.148438 24.582031 90.136719 C 24.746094 89.972656 24.921875 89.8125 25.109375 89.65625 C 24.738281 89.648438 24.375 89.738281 24.027344 89.917969 C 23.628906 90.125 23.242188 90.453125 22.871094 90.902344 C 22.636719 91.375 22.394531 91.71875 22.144531 91.9375 C 21.96875 92.089844 21.785156 92.183594 21.601562 92.214844 C 21.414062 92.242188 21.222656 92.210938 21.03125 92.117188 C 20.832031 92.019531 20.636719 91.855469 20.433594 91.632812 C 20.023438 91.839844 19.679688 92.210938 19.40625 92.75 C 19.328125 92.902344 19.253906 93.070312 19.1875 93.253906 C 19.117188 93.433594 19.054688 93.628906 19 93.839844 L 18.996094 93.851562 L 18.964844 93.964844 L 18.898438 93.871094 C 18.828125 93.769531 18.757812 93.667969 18.691406 93.5625 C 18.195312 92.78125 18 92.0625 18.105469 91.414062 C 18.210938 90.765625 18.621094 90.183594 19.328125 89.675781 C 19.40625 89.621094 19.488281 89.566406 19.574219 89.511719 C 20.457031 88.539062 21.644531 87.90625 23.132812 87.609375 L 23.253906 87.585938 C 22.925781 87.339844 22.515625 87.191406 22.027344 87.136719 C 21.433594 87.074219 20.722656 87.148438 19.898438 87.367188 C 19.703125 87.492188 19.484375 87.605469 19.246094 87.714844 C 18.871094 87.890625 18.558594 87.96875 18.300781 87.949219 C 18.148438 87.9375 18.015625 87.894531 17.902344 87.8125 C 17.792969 87.734375 17.699219 87.621094 17.632812 87.476562 C 17.492188 87.179688 17.4375 86.742188 17.472656 86.164062 C 17.125 86.257812 16.761719 86.410156 16.375 86.628906 C 16.199219 86.726562 16.023438 86.835938 15.84375 86.957031 C 15.664062 87.082031 15.476562 87.214844 15.289062 87.363281 L 15.285156 87.367188 L 15.191406 87.441406 L 15.195312 87.324219 C 15.21875 86.1875 15.535156 85.363281 16.136719 84.863281 C 16.734375 84.363281 17.613281 84.179688 18.769531 84.3125 C 19.984375 83.324219 21.003906 83.535156 21.824219 84.953125 C 23.210938 85.316406 24.207031 85.320312 24.816406 84.964844 C 24.933594 84.898438 25.035156 84.816406 25.125 84.722656 C 25.210938 84.628906 25.285156 84.523438 25.34375 84.402344 C 25.367188 84.113281 26.101562 83.765625 27.550781 83.363281 C 27.832031 83.285156 28.140625 83.203125 28.476562 83.121094 C 28.8125 83.035156 29.175781 82.949219 29.566406 82.859375 L 29.578125 82.859375 C 31.976562 82.484375 33.476562 81.980469 34.082031 81.34375 C 34.195312 81.222656 34.277344 81.097656 34.324219 80.96875 C 34.371094 80.84375 34.386719 80.707031 34.371094 80.570312 L 34.371094 80.550781 L 34.375 80.535156 C 34.726562 79.695312 35.257812 79.058594 35.972656 78.625 C 36.113281 78.542969 36.261719 78.464844 36.414062 78.398438 C 36.5625 78.332031 36.71875 78.273438 36.882812 78.21875 C 37.175781 77.945312 37.296875 77.570312 37.25 77.097656 C 37.199219 76.613281 36.976562 76.027344 36.582031 75.335938 C 36.542969 75.332031 36.503906 75.328125 36.46875 75.324219 C 35.9375 75.25 35.503906 74.902344 35.167969 74.277344 C 34.824219 74.238281 34.507812 74.082031 34.214844 73.804688 C 33.992188 73.59375 33.789062 73.316406 33.597656 72.972656 C 33.398438 72.960938 33.199219 72.929688 33 72.882812 C 32.707031 72.808594 32.410156 72.699219 32.109375 72.546875 C 31.816406 72.398438 31.519531 72.210938 31.21875 71.984375 C 31.117188 71.992188 31.015625 71.996094 30.914062 72 L 30.875 72 C 30.449219 72.214844 29.996094 72.132812 29.59375 71.851562 C 29.308594 71.65625 29.046875 71.359375 28.839844 71 C 28.632812 70.648438 28.480469 70.230469 28.40625 69.789062 C 28.238281 68.789062 28.484375 67.664062 29.460938 66.832031 L 29.558594 66.75 L 29.550781 66.878906 C 29.5 67.734375 29.570312 68.417969 29.765625 68.925781 C 29.960938 69.429688 30.277344 69.765625 30.714844 69.929688 C 31.753906 70.25 32.699219 70 33.554688 69.175781 C 33.722656 69.011719 33.886719 68.828125 34.046875 68.625 C 34.207031 68.417969 34.363281 68.191406 34.519531 67.941406 L 34.523438 67.933594 L 34.523438 67.929688 C 36.632812 65.3125 38.695312 63.816406 40.710938 63.445312 C 41.105469 63.371094 41.496094 63.339844 41.882812 63.355469 C 42.273438 63.367188 42.660156 63.421875 43.046875 63.519531 L 43.050781 63.523438 C 43.949219 63.78125 45.011719 63.808594 46.242188 63.601562 C 46.480469 63.5625 46.726562 63.511719 46.980469 63.453125 C 47.234375 63.394531 47.496094 63.328125 47.757812 63.25 L 47.773438 63.246094 C 49.621094 62.640625 50.957031 62.332031 51.785156 62.332031 C 51.945312 62.332031 52.089844 62.339844 52.214844 62.363281 C 52.335938 62.386719 52.441406 62.421875 52.527344 62.464844 C 53.136719 62.488281 53.679688 62.644531 54.15625 62.933594 C 54.574219 63.191406 54.941406 63.558594 55.253906 64.027344 C 55.066406 62.46875 54.292969 61.148438 52.933594 60.0625 C 52.523438 59.738281 52.0625 59.433594 51.550781 59.152344 C 51.035156 58.871094 50.46875 58.609375 49.851562 58.367188 C 46.601562 57.757812 44.542969 56.984375 43.675781 56.050781 C 43.503906 55.867188 43.378906 55.671875 43.300781 55.476562 C 43.21875 55.273438 43.1875 55.070312 43.203125 54.855469 L 43.203125 54.84375 C 43.242188 54.191406 43.113281 53.703125 42.824219 53.378906 C 42.539062 53.0625 42.09375 52.902344 41.484375 52.898438 C 40.769531 54.476562 39.816406 55.429688 38.617188 55.757812 C 38.382812 55.820312 38.136719 55.859375 37.882812 55.875 C 37.632812 55.890625 37.367188 55.882812 37.097656 55.851562 L 37.089844 55.851562 L 36.867188 55.820312 L 37.078125 55.742188 C 37.585938 55.554688 37.90625 55.34375 38.03125 55.113281 C 38.152344 54.894531 38.089844 54.648438 37.851562 54.378906 C 37.320312 53.769531 36.890625 53.433594 36.558594 53.367188 C 36.496094 53.355469 36.4375 53.351562 36.382812 53.359375 C 36.339844 53.363281 36.296875 53.375 36.253906 53.394531 C 35.679688 55.621094 34.859375 57.007812 33.792969 57.558594 C 33.585938 57.667969 33.363281 57.742188 33.136719 57.785156 C 32.90625 57.828125 32.667969 57.839844 32.421875 57.820312 L 32.414062 57.816406 L 32.398438 57.816406 L 32.394531 57.8125 L 32.390625 57.8125 L 32.382812 57.804688 L 32.378906 57.804688 L 32.378906 57.800781 L 32.375 57.796875 L 32.375 57.792969 L 32.371094 57.792969 L 32.371094 57.789062 L 32.367188 57.785156 L 32.363281 57.777344 L 32.363281 57.75 L 32.367188 57.746094 L 32.367188 57.742188 L 32.371094 57.738281 L 32.371094 57.734375 L 32.378906 57.726562 C 33.074219 57.039062 33.4375 56.320312 33.464844 55.574219 C 33.472656 55.429688 33.464844 55.285156 33.445312 55.136719 C 33.425781 54.996094 33.394531 54.851562 33.351562 54.703125 C 33.292969 54.664062 33.230469 54.625 33.171875 54.597656 C 32.875 54.445312 32.585938 54.421875 32.304688 54.535156 C 32.023438 54.648438 31.746094 54.898438 31.476562 55.285156 C 31.355469 55.460938 31.234375 55.660156 31.117188 55.890625 C 30.867188 56.476562 30.519531 56.914062 30.074219 57.199219 C 29.914062 57.300781 29.742188 57.386719 29.558594 57.449219 C 29.375 57.515625 29.175781 57.558594 28.96875 57.582031 L 28.960938 57.582031 L 28.863281 57.59375 L 28.90625 57.507812 C 29.234375 56.816406 29.246094 56.242188 28.949219 55.777344 C 28.894531 55.6875 28.824219 55.601562 28.742188 55.515625 C 28.664062 55.4375 28.574219 55.363281 28.472656 55.289062 C 27.667969 55.394531 27.03125 55.730469 26.5625 56.300781 C 26.089844 56.871094 25.789062 57.683594 25.65625 58.730469 C 25.660156 58.753906 25.660156 58.777344 25.660156 58.800781 C 25.660156 58.882812 25.648438 58.972656 25.628906 59.0625 C 25.613281 59.144531 25.585938 59.234375 25.546875 59.320312 C 25.589844 60.144531 25.359375 60.6875 24.863281 60.953125 C 24.375 61.210938 23.628906 61.191406 22.628906 60.894531 C 22.460938 61.070312 22.277344 61.28125 22.082031 61.539062 C 21.953125 61.703125 21.820312 61.886719 21.679688 62.085938 C 21.542969 62.289062 21.394531 62.503906 21.246094 62.738281 L 21.234375 62.761719 L 21.195312 62.820312 L 21.144531 62.769531 C 20.894531 62.484375 20.78125 62.140625 20.804688 61.742188 C 20.828125 61.359375 20.984375 60.921875 21.269531 60.429688 C 21.109375 60.011719 21.109375 59.628906 21.277344 59.285156 C 21.449219 58.941406 21.78125 58.636719 22.285156 58.371094 L 22.296875 58.367188 L 22.308594 58.367188 C 22.613281 58.351562 22.867188 58.171875 23.058594 57.832031 C 23.246094 57.496094 23.382812 57.007812 23.460938 56.363281 C 22.191406 57.082031 21.257812 57.765625 20.664062 58.410156 C 20.070312 59.0625 19.816406 59.671875 19.910156 60.246094 C 20 60.460938 20.007812 60.644531 19.941406 60.804688 C 19.871094 60.960938 19.726562 61.085938 19.503906 61.175781 C 19.15625 61.320312 18.613281 61.390625 17.875 61.378906 C 17.445312 61.511719 17.074219 61.957031 16.765625 62.71875 C 16.703125 62.867188 16.644531 63.03125 16.585938 63.207031 C 16.527344 63.382812 16.472656 63.570312 16.421875 63.769531 L 16.421875 63.777344 L 16.40625 63.832031 L 16.351562 63.816406 L 16.328125 63.808594 C 15.984375 63.699219 15.78125 63.4375 15.714844 63.03125 C 15.648438 62.632812 15.714844 62.097656 15.914062 61.417969 C 15.929688 61.359375 15.949219 61.300781 15.964844 61.238281 C 15.101562 61.207031 14.972656 60.789062 15.574219 59.980469 C 16.144531 59.214844 17.414062 58.078125 19.378906 56.570312 C 17.257812 56.039062 15.988281 56.492188 15.574219 57.933594 C 15.609375 58.1875 15.515625 58.425781 15.28125 58.648438 C 14.804688 59.132812 14.386719 59.457031 14.027344 59.625 C 13.765625 59.746094 13.535156 59.785156 13.339844 59.742188 C 13.136719 59.699219 12.972656 59.570312 12.851562 59.367188 C 12.742188 59.183594 12.664062 58.941406 12.621094 58.632812 C 12.578125 58.59375 12.53125 58.558594 12.488281 58.527344 C 12.191406 58.308594 11.878906 58.246094 11.546875 58.339844 C 11.207031 58.429688 10.847656 58.683594 10.46875 59.09375 C 10.316406 59.261719 10.160156 59.453125 10 59.671875 L 9.957031 59.730469 L 9.914062 59.667969 C 9.847656 59.578125 9.792969 59.484375 9.75 59.394531 C 9.574219 59.023438 9.570312 58.65625 9.738281 58.292969 C 9.898438 57.933594 10.230469 57.582031 10.722656 57.234375 C 11.054688 57.003906 11.460938 56.773438 11.941406 56.546875 C 13.171875 55.507812 14.285156 54.839844 15.277344 54.535156 C 14.8125 54.285156 14.296875 54.199219 13.726562 54.28125 C 13.597656 54.300781 13.464844 54.328125 13.332031 54.367188 C 13.195312 54.402344 13.058594 54.449219 12.917969 54.503906 L 12.914062 54.503906 C 12.683594 54.703125 12.339844 54.839844 11.882812 54.914062 L 11.867188 54.914062 L 11.851562 54.90625 C 11.773438 54.867188 11.699219 54.828125 11.625 54.785156 C 11.175781 54.523438 10.898438 54.195312 10.796875 53.808594 C 10.753906 53.640625 10.742188 53.464844 10.761719 53.277344 C 10.121094 52.894531 9.453125 52.867188 8.757812 53.195312 C 8.617188 53.261719 8.472656 53.34375 8.328125 53.4375 C 8.183594 53.535156 8.039062 53.644531 7.894531 53.769531 L 7.886719 53.773438 L 7.789062 53.859375 L 7.796875 53.730469 C 7.800781 53.65625 7.808594 53.582031 7.820312 53.507812 C 7.921875 52.699219 8.242188 52.109375 8.773438 51.742188 C 9.304688 51.371094 10.042969 51.226562 10.992188 51.296875 C 11.101562 51.304688 11.21875 51.316406 11.335938 51.332031 C 11.402344 51.238281 11.476562 51.15625 11.546875 51.082031 C 11.839844 50.785156 12.175781 50.648438 12.554688 50.664062 C 12.925781 50.679688 13.339844 50.847656 13.789062 51.164062 C 14.035156 51.339844 14.296875 51.5625 14.570312 51.832031 C 14.640625 51.785156 14.726562 51.742188 14.824219 51.707031 C 15.128906 51.59375 15.570312 51.535156 16.144531 51.535156 C 16.875 51.535156 17.820312 51.628906 18.984375 51.808594 C 22.382812 51.972656 24.917969 51.503906 26.585938 50.402344 C 26.910156 50.191406 27.199219 49.953125 27.457031 49.691406 C 27.714844 49.433594 27.941406 49.148438 28.132812 48.839844 L 28.136719 48.832031 C 29.003906 47.101562 29.917969 45.996094 30.875 45.519531 C 31.261719 45.324219 31.65625 45.230469 32.0625 45.242188 C 31.453125 44.191406 30.507812 43.640625 29.230469 43.597656 C 28.972656 43.589844 28.703125 43.601562 28.421875 43.632812 C 28.136719 43.664062 27.835938 43.714844 27.527344 43.789062 L 27.523438 43.789062 L 27.300781 43.839844 L 27.472656 43.695312 C 28.667969 42.6875 29.734375 42.085938 30.675781 41.886719 C 30.136719 41.765625 29.660156 41.433594 29.246094 40.890625 C 29.105469 40.707031 28.972656 40.496094 28.84375 40.257812 C 28.71875 40.023438 28.601562 39.765625 28.488281 39.480469 L 28.488281 39.476562 C 28.039062 38.597656 27.632812 37.710938 27.269531 36.820312 C 27.195312 36.644531 27.125 36.472656 27.058594 36.300781 C 27 36.144531 26.941406 35.992188 26.886719 35.84375 C 26.367188 36.210938 25.828125 36.394531 25.265625 36.402344 C 25.074219 36.40625 24.878906 36.386719 24.683594 36.347656 C 24.488281 36.304688 24.289062 36.246094 24.089844 36.164062 L 24.085938 36.164062 L 23.953125 36.109375 L 24.089844 36.0625 C 25.164062 35.671875 25.703125 34.984375 25.703125 34 C 25.703125 33.804688 25.683594 33.601562 25.644531 33.386719 C 25.605469 33.191406 25.550781 32.984375 25.484375 32.769531 C 25.433594 32.808594 25.378906 32.839844 25.324219 32.867188 C 25.039062 33.011719 24.675781 33.042969 24.238281 32.972656 C 24.027344 32.933594 23.796875 32.875 23.546875 32.789062 L 23.464844 32.761719 L 23.527344 32.699219 C 24.550781 31.671875 24.722656 30.527344 24.042969 29.273438 C 23.90625 29.027344 23.742188 28.773438 23.539062 28.519531 C 23.339844 28.265625 23.109375 28.003906 22.84375 27.738281 L 22.832031 27.730469 L 22.832031 27.726562 C 22.601562 27.441406 22.242188 27.246094 21.753906 27.136719 C 21.648438 27.113281 21.53125 27.089844 21.410156 27.078125 C 21.289062 27.058594 21.164062 27.046875 21.027344 27.042969 C 20.917969 27.035156 20.800781 27.03125 20.683594 27.03125 C 19.738281 27.761719 18.722656 28.191406 17.625 28.320312 C 17.363281 28.351562 17.101562 28.367188 16.832031 28.363281 C 16.5625 28.359375 16.289062 28.339844 16.015625 28.304688 C 15.769531 28.351562 15.550781 28.34375 15.359375 28.28125 C 14.929688 28.140625 14.636719 27.726562 14.484375 27.035156 C 13.507812 26.722656 13.109375 25.847656 13.285156 24.417969 L 13.308594 24.238281 L 13.390625 24.402344 C 13.769531 25.167969 14.25 25.609375 14.828125 25.726562 C 14.941406 25.75 15.058594 25.761719 15.179688 25.757812 C 15.292969 25.757812 15.410156 25.746094 15.53125 25.722656 C 15.671875 25.316406 15.902344 25.109375 16.222656 25.101562 C 16.535156 25.09375 16.929688 25.289062 17.402344 25.679688 C 18.140625 25.84375 18.765625 25.804688 19.277344 25.566406 C 19.777344 25.335938 20.171875 24.910156 20.460938 24.289062 C 19.449219 23.605469 18.582031 23.101562 17.855469 22.785156 C 17.132812 22.46875 16.554688 22.332031 16.121094 22.378906 C 15.917969 22.519531 15.707031 22.605469 15.496094 22.632812 C 15.394531 22.644531 15.296875 22.644531 15.195312 22.632812 C 15.097656 22.621094 15.003906 22.59375 14.90625 22.558594 C 14.730469 22.5625 14.574219 22.546875 14.441406 22.507812 C 14.25 22.449219 14.105469 22.347656 14.003906 22.203125 C 13.902344 22.058594 13.851562 21.871094 13.84375 21.640625 C 13.835938 21.394531 13.878906 21.09375 13.980469 20.746094 C 13.882812 20.699219 13.78125 20.660156 13.671875 20.632812 C 13.292969 20.539062 12.828125 20.578125 12.28125 20.75 L 12.171875 20.78125 L 12.214844 20.675781 C 12.410156 20.15625 12.714844 19.789062 13.121094 19.570312 C 13.527344 19.359375 14.027344 19.289062 14.632812 19.371094 C 15.042969 19.050781 15.488281 18.925781 15.960938 18.988281 C 16.441406 19.054688 16.949219 19.316406 17.488281 19.769531 C 18.128906 20.265625 18.703125 20.59375 19.203125 20.761719 C 19.6875 20.921875 20.105469 20.921875 20.457031 20.769531 C 21.054688 19.9375 20.269531 18.890625 18.09375 17.621094 C 17.863281 17.628906 17.65625 17.59375 17.472656 17.515625 C 17.128906 17.378906 16.863281 17.101562 16.679688 16.691406 L 16.671875 16.683594 C 16.511719 16.503906 16.5 16.265625 16.644531 15.964844 C 16.710938 15.828125 16.808594 15.679688 16.9375 15.511719 C 16.9375 15.507812 16.9375 15.503906 16.9375 15.5 C 17.007812 14.90625 16.746094 14.398438 16.152344 13.980469 C 16.035156 13.898438 15.90625 13.816406 15.761719 13.742188 C 15.617188 13.667969 15.460938 13.59375 15.292969 13.523438 L 15.28125 13.519531 L 15.179688 13.476562 L 15.273438 13.421875 C 15.808594 13.109375 16.371094 12.976562 16.960938 13.03125 C 17.539062 13.082031 18.144531 13.3125 18.773438 13.722656 C 19.1875 13.695312 19.542969 13.71875 19.835938 13.792969 C 20.179688 13.878906 20.445312 14.03125 20.632812 14.246094 C 20.816406 14.460938 20.921875 14.738281 20.945312 15.070312 C 20.964844 15.324219 20.933594 15.613281 20.855469 15.933594 C 21.089844 17.277344 21.5625 18.203125 22.210938 18.734375 C 22.335938 18.839844 22.46875 18.929688 22.605469 19.003906 C 22.742188 19.074219 22.878906 19.132812 23.023438 19.175781 C 23.0625 19.160156 23.09375 19.144531 23.128906 19.125 C 23.4375 18.949219 23.605469 18.664062 23.628906 18.277344 C 23.652344 17.875 23.527344 17.359375 23.257812 16.734375 C 23.125 16.433594 22.960938 16.105469 22.757812 15.75 C 22.695312 15.726562 22.636719 15.699219 22.578125 15.671875 C 22.242188 15.496094 22.042969 15.238281 21.976562 14.902344 C 21.820312 14.375 21.945312 13.964844 22.347656 13.683594 C 22.425781 13.628906 22.515625 13.582031 22.613281 13.535156 C 22.703125 13.496094 22.804688 13.457031 22.914062 13.421875 C 23.066406 13.128906 23.125 12.789062 23.089844 12.398438 C 23.050781 11.996094 22.910156 11.539062 22.671875 11.03125 L 22.621094 10.929688 L 22.734375 10.957031 C 23.8125 11.210938 24.550781 11.746094 24.945312 12.558594 C 25.023438 12.714844 25.085938 12.886719 25.136719 13.0625 C 25.183594 13.230469 25.21875 13.410156 25.246094 13.597656 C 25.574219 13.667969 25.808594 13.78125 25.949219 13.945312 C 26.230469 14.273438 26.128906 14.777344 25.644531 15.457031 C 26.269531 16.015625 26.625 16.652344 26.714844 17.367188 C 26.808594 18.097656 26.625 18.90625 26.167969 19.800781 C 25.851562 20.46875 25.691406 21.058594 25.683594 21.574219 C 25.671875 22.082031 25.8125 22.515625 26.105469 22.875 L 26.109375 22.878906 L 26.109375 22.882812 C 27.945312 25.871094 29.765625 28.359375 31.570312 30.34375 C 33.371094 32.320312 35.152344 33.800781 36.917969 34.777344 C 36.980469 34.785156 37.042969 34.789062 37.101562 34.796875 C 37.351562 34.824219 37.601562 34.867188 37.855469 34.921875 L 37.863281 34.921875 L 37.867188 34.925781 C 37.992188 34.953125 38.117188 34.980469 38.242188 35.007812 C 39.570312 35.273438 40.636719 35.167969 41.445312 34.699219 C 42.164062 34.277344 42.679688 33.566406 42.988281 32.558594 C 43 32.445312 43.023438 32.324219 43.054688 32.199219 C 43.078125 32.101562 43.113281 32 43.152344 31.898438 C 43.066406 31.765625 42.976562 31.660156 42.878906 31.582031 C 42.738281 31.46875 42.582031 31.414062 42.414062 31.417969 C 42.238281 31.425781 42.050781 31.488281 41.84375 31.617188 C 41.503906 31.824219 41.125 32.191406 40.707031 32.71875 L 40.613281 32.835938 L 40.609375 32.6875 C 40.558594 31.347656 40.976562 30.363281 41.863281 29.734375 C 42.65625 29.171875 43.832031 28.898438 45.382812 28.914062 C 45.300781 28.726562 45.351562 28.371094 45.53125 27.851562 C 45.496094 27.632812 45.332031 27.503906 45.035156 27.476562 C 44.71875 27.441406 44.253906 27.519531 43.648438 27.703125 C 43.289062 28.175781 42.832031 28.429688 42.269531 28.46875 C 42.121094 28.480469 41.964844 28.472656 41.800781 28.453125 C 41.636719 28.433594 41.46875 28.398438 41.289062 28.347656 L 41.289062 28.34375 L 41.117188 28.296875 L 41.285156 28.242188 C 41.585938 28.140625 41.792969 27.96875 41.929688 27.730469 C 42.066406 27.496094 42.132812 27.195312 42.152344 26.839844 C 42.027344 26.796875 41.914062 26.746094 41.8125 26.6875 C 41.527344 26.535156 41.339844 26.34375 41.246094 26.117188 C 41.152344 25.894531 41.15625 25.632812 41.261719 25.34375 C 41.292969 25.246094 41.339844 25.144531 41.398438 25.035156 L 41.40625 25.023438 L 41.421875 25.015625 C 41.773438 24.808594 42.101562 24.71875 42.398438 24.753906 C 42.660156 24.78125 42.898438 24.902344 43.113281 25.117188 C 43.136719 24.789062 43.199219 24.507812 43.304688 24.273438 C 43.332031 24.210938 43.363281 24.148438 43.398438 24.09375 C 43.429688 24.035156 43.46875 23.980469 43.507812 23.929688 L 43.53125 23.902344 L 43.605469 23.8125 L 43.628906 23.925781 C 43.699219 24.269531 43.800781 24.519531 43.921875 24.675781 C 43.988281 24.757812 44.058594 24.8125 44.136719 24.84375 C 44.210938 24.875 44.296875 24.878906 44.386719 24.859375 C 44.507812 24.832031 44.640625 24.765625 44.789062 24.652344 C 44.667969 24.308594 44.660156 23.914062 44.769531 23.464844 C 44.792969 23.375 44.820312 23.285156 44.851562 23.191406 C 44.878906 23.097656 44.917969 23.003906 44.957031 22.902344 L 44.960938 22.890625 L 45.054688 22.664062 L 45.066406 22.910156 C 45.082031 23.21875 45.242188 23.523438 45.542969 23.816406 C 45.601562 23.871094 45.667969 23.929688 45.742188 23.988281 C 45.8125 24.046875 45.886719 24.101562 45.96875 24.15625 C 46.453125 23.765625 46.667969 23.324219 46.617188 22.839844 C 46.609375 22.742188 46.585938 22.644531 46.558594 22.542969 C 46.53125 22.457031 46.496094 22.371094 46.453125 22.28125 C 45.273438 22.148438 43.640625 22.628906 41.558594 23.730469 L 41.554688 23.734375 C 39.433594 24.632812 37.59375 24.828125 36.035156 24.324219 C 35.730469 24.226562 35.4375 24.097656 35.15625 23.945312 C 34.875 23.792969 34.601562 23.613281 34.339844 23.410156 L 34.324219 23.398438 L 34.316406 23.390625 C 33.300781 22.238281 32.925781 21.070312 33.1875 19.890625 C 33.238281 19.664062 33.3125 19.433594 33.414062 19.203125 C 33.511719 18.972656 33.636719 18.742188 33.785156 18.511719 L 33.785156 18.507812 C 33.910156 18.1875 34.148438 17.972656 34.507812 17.859375 C 34.859375 17.746094 35.324219 17.734375 35.90625 17.824219 L 36.050781 17.84375 L 35.929688 17.921875 C 35.292969 18.335938 34.917969 18.804688 34.804688 19.332031 C 34.695312 19.855469 34.84375 20.441406 35.253906 21.089844 C 36.386719 22.238281 37.851562 22.648438 39.652344 22.324219 C 40.003906 22.261719 40.367188 22.167969 40.746094 22.050781 C 41.125 21.929688 41.519531 21.78125 41.921875 21.605469 L 41.9375 21.597656 C 43.382812 21.054688 44.671875 20.804688 45.808594 20.84375 C 45.09375 20.058594 44.386719 19.601562 43.691406 19.480469 C 43.550781 19.453125 43.410156 19.441406 43.269531 19.445312 C 43.136719 19.445312 43.003906 19.460938 42.867188 19.488281 C 42.761719 19.628906 42.671875 19.769531 42.59375 19.90625 C 42.398438 20.25 42.292969 20.582031 42.273438 20.898438 L 42.269531 21.003906 L 42.1875 20.9375 C 41.539062 20.421875 41.460938 19.753906 41.957031 18.9375 L 41.855469 18.925781 C 41.675781 18.910156 41.492188 18.882812 41.304688 18.847656 C 40.917969 19.21875 40.644531 19.628906 40.480469 20.078125 C 40.449219 20.167969 40.421875 20.257812 40.398438 20.351562 C 40.375 20.445312 40.355469 20.539062 40.34375 20.636719 L 40.339844 20.640625 L 40.316406 20.808594 L 40.238281 20.65625 C 39.90625 20.019531 39.777344 19.472656 39.855469 19.015625 C 39.871094 18.925781 39.894531 18.835938 39.925781 18.753906 C 39.945312 18.703125 39.96875 18.652344 39.992188 18.601562 C 39.722656 18.628906 39.484375 18.59375 39.273438 18.507812 C 39.082031 18.433594 38.917969 18.316406 38.78125 18.164062 C 38.652344 18.015625 38.546875 17.835938 38.480469 17.632812 C 38.324219 17.171875 38.34375 16.589844 38.582031 15.996094 L 38.582031 15.992188 C 38.6875 15.796875 38.871094 15.636719 39.078125 15.457031 C 39.484375 15.109375 39.996094 14.667969 40.191406 13.699219 C 40.0625 13.542969 40 13.339844 40 13.09375 C 39.949219 12.742188 40.019531 12.492188 40.207031 12.335938 C 40.390625 12.1875 40.683594 12.136719 41.09375 12.191406 L 41.097656 12.191406 C 41.84375 12.378906 42.523438 12.324219 43.144531 12.019531 C 43.265625 11.960938 43.382812 11.890625 43.5 11.816406 C 43.613281 11.738281 43.730469 11.648438 43.839844 11.554688 L 43.84375 11.550781 C 44.304688 11.082031 44.921875 10.851562 45.6875 10.867188 C 45.835938 10.871094 45.992188 10.882812 46.152344 10.902344 C 46.308594 10.921875 46.476562 10.953125 46.644531 10.992188 L 46.652344 10.996094 L 46.660156 10.996094 C 46.933594 11.121094 47.292969 11.0625 47.738281 10.828125 C 47.824219 10.78125 47.917969 10.726562 48.011719 10.667969 C 48.105469 10.605469 48.207031 10.539062 48.308594 10.460938 L 48.3125 10.460938 L 48.324219 10.453125 L 48.335938 10.449219 C 49.226562 10.273438 50.023438 10.308594 50.722656 10.558594 C 51.421875 10.808594 52.023438 11.269531 52.53125 11.941406 Z M 48.84375 14.226562 C 48.140625 13.769531 47.367188 13.621094 46.851562 14.441406 C 46.726562 14.644531 46.542969 14.75 46.34375 14.769531 L 46.664062 14.90625 C 46.691406 15.5 47.082031 16.203125 47.59375 16.261719 C 47.21875 15.914062 47.03125 15.582031 47.023438 15.265625 C 47.863281 16.269531 48.46875 16.335938 49.332031 15.476562 C 48.101562 16.285156 47.507812 15.585938 47.148438 14.757812 C 47.359375 14.308594 47.617188 14.175781 47.910156 14.207031 C 47.726562 14.328125 47.621094 14.59375 47.667969 14.886719 C 47.726562 15.25 48 15.507812 48.277344 15.464844 C 48.324219 15.457031 48.363281 15.441406 48.40625 15.421875 C 48.242188 15.351562 48.105469 15.160156 48.066406 14.921875 C 48.023438 14.65625 48.113281 14.414062 48.273438 14.308594 C 49.097656 14.652344 50.105469 15.671875 51.023438 14.628906 C 50.539062 14.992188 49.808594 14.855469 48.84375 14.226562 " fill-opacity="1" fill-rule="nonzero"/></g></svg>